<mxfile host="app.diagrams.net" modified="2023-12-12T11:38:40.242Z" agent="Mozilla/5.0 (Macintosh; Intel Mac OS X 10_15_7) AppleWebKit/537.36 (KHTML, like Gecko) Chrome/119.0.0.0 Safari/537.36" version="22.1.7" etag="lZ_JG_ELmKIIXGGWXLNe" type="github">
  <diagram name="第 1 页" id="2OR_J8X1m3ob1UGpP3Pg">
    <mxGraphModel>
      <root>
        <mxCell id="0" />
        <mxCell id="1" parent="0" />
      </root>
    </mxGraphModel>
  </diagram>
</mxfile>
